<?xml version="1.0" encoding="UTF-8" standalone="no"?>
<!-- Created with Inkscape (http://www.inkscape.org/) -->

<svg
   version="1.1"
   id="svg10"
   width="500"
   height="78"
   viewBox="0 0 500 78"
   sodipodi:docname="catrobat_logo.svg"
   inkscape:version="1.3 (0e150ed6c4, 2023-07-21)"
   xmlns:inkscape="http://www.inkscape.org/namespaces/inkscape"
   xmlns:sodipodi="http://sodipodi.sourceforge.net/DTD/sodipodi-0.dtd"
   xmlns="http://www.w3.org/2000/svg"
   xmlns:svg="http://www.w3.org/2000/svg">
  <defs
     id="defs14" />
  <sodipodi:namedview
     id="namedview12"
     pagecolor="#ffffff"
     bordercolor="#000000"
     borderopacity="0.25"
     inkscape:showpageshadow="2"
     inkscape:pageopacity="0.0"
     inkscape:pagecheckerboard="0"
     inkscape:deskcolor="#d1d1d1"
     showgrid="false"
     inkscape:zoom="1.9516147"
     inkscape:cx="266.70223"
     inkscape:cy="11.528915"
     inkscape:window-width="2560"
     inkscape:window-height="1369"
     inkscape:window-x="1912"
     inkscape:window-y="-8"
     inkscape:window-maximized="1"
     inkscape:current-layer="g16" />
  <g
     inkscape:groupmode="layer"
     inkscape:label="Image"
     id="g16">
    <path
       style="display:inline;fill:#ffffff;fill-opacity:1"
       d="m 453,13 h 19.43164 c 18.26663,0 19.46972,0.114004 20.04102,1.914062 0.3343,1.053223 0.31582,3.078232 -0.041,4.5 -0.60121,2.395381 -1.06333,2.587373 -6.29102,2.601563 -3.10284,0.0084 -6.19463,0.36716 -6.87109,0.796875 -0.89817,0.570549 -1.30278,6.702772 -1.5,22.734375 L 477.5,67.5 l -4.62305,0.298828 c -3.54094,0.229463 -4.77059,-0.08075 -5.25,-1.330078 C 467.28263,65.571466 467,55.471528 467,44.025391 467,20.478903 467.5925,22 458.41797,22 H 453 v -4.5 z"
       id="path24"
       inkscape:label="t" />
    <path
       id="path26"
       style="display:inline;fill:#ffffff;fill-opacity:1"
       inkscape:label="a"
       d="M 431.29883 13.150391 C 430.96405 13.158758 430.60747 13.176162 430.23047 13.201172 L 425.71484 13.5 L 416.30859 39.404297 C 411.13577 53.651116 407.14555 65.937999 407.44141 66.708984 C 407.82284 67.702975 409.35794 68.021102 412.7168 67.804688 C 417.33317 67.507244 417.49637 67.385512 419.11133 63 L 420.76758 58.5 L 430.13477 58.5 L 439.5 58.5 L 441.76953 63.25 C 443.97114 67.858337 444.1711 68 448.46094 68 C 450.89287 68 453.15881 67.553557 453.49609 67.007812 C 453.95774 66.260853 443.69477 36.579905 435.23828 14.201172 C 434.95135 13.441853 433.64228 13.09182 431.29883 13.150391 z M 430.58594 32.667969 C 431.77593 32.812187 435.85488 43.476218 435.94141 46.75 C 435.99601 48.817803 435.55461 49 430.5 49 C 425.44772 49 425.00338 48.816852 425.05078 46.75 C 425.12058 43.704871 429.33328 32.882119 430.53125 32.669922 C 430.54866 32.666839 430.56705 32.66568 430.58594 32.667969 z " />
    <path
       id="path28"
       style="display:inline;fill:#ffffff;fill-opacity:1"
       inkscape:label="b"
       d="M 381.16406 13.1875 C 379.47359 13.177277 377.59506 13.196999 375.5 13.236328 L 361.5 13.5 L 361.23242 39.376953 C 361.04399 57.629651 361.30162 65.658403 362.10547 66.626953 C 362.96345 67.660755 366.36592 67.995056 375.87305 67.978516 C 386.15695 67.960626 389.28413 67.600677 392.72852 66.037109 C 398.45244 63.438747 400.99109 59.074504 400.99609 51.826172 C 400.99909 47.230329 400.52522 45.588471 398.5 43.181641 C 395.49331 39.608406 395.49437 39.614685 397.9707 36.208984 C 401.1841 31.789665 401.48918 26.233366 398.80664 21 C 395.61722 14.777726 392.99739 13.259058 381.16406 13.1875 z M 378.11523 21.96875 C 381.94044 21.980362 386.71604 23.166394 388.16602 24.957031 C 390.61215 27.977917 390.47808 29.611776 387.54492 32.544922 C 385.49556 34.594273 384.12123 35 379.21289 35 C 375.97956 35 373.03268 34.70065 372.66602 34.333984 C 371.33376 33.001735 371.97843 24.262448 373.50195 22.998047 C 374.13343 22.47397 375.22628 22.164975 376.54688 22.037109 C 377.04209 21.98916 377.56878 21.967091 378.11523 21.96875 z M 382.04102 45.128906 C 382.30208 45.128025 382.55179 45.130556 382.79102 45.134766 C 385.66174 45.185296 387.01451 45.609516 388.11719 46.607422 C 390.79658 49.032263 390.60929 54.459795 387.77734 56.443359 C 384.85988 58.48685 373.17584 58.623463 372.4082 56.623047 C 372.11755 55.865668 372.01905 53.053152 372.18945 50.373047 L 372.5 45.5 L 379.36719 45.201172 C 380.37306 45.157439 381.25783 45.13155 382.04102 45.128906 z " />
    <path
       id="path22"
       style="display:inline;fill:#ffffff;fill-opacity:1"
       inkscape:label="o"
       d="M 330.05273 12.09375 C 324.85326 12.12786 319.52577 14.109192 315.26953 18.228516 C 310.60654 22.741534 309.60487 26.78548 309.63477 41 C 309.66247 54.184962 310.95629 58.938993 315.67383 63.205078 C 320.4692 67.541569 331.23404 69.369594 337.68555 66.941406 C 341.89036 65.358806 347.89167 59.045752 349.00586 55.035156 C 349.54599 53.090927 349.98166 46.099972 349.97266 39.5 C 349.95971 30.017825 349.57166 26.652399 348.12109 23.458984 C 344.89991 16.36752 338.19001 12.421313 331.08984 12.113281 C 330.7447 12.098308 330.39937 12.091476 330.05273 12.09375 z M 329.8418 22.09375 C 331.85376 22.13912 333.9196 22.885889 335.69336 24.410156 C 338.43525 26.766392 338.50828 27.094174 338.83203 38.802734 C 339.09556 48.333413 338.83337 51.420652 337.55469 53.892578 C 336.67082 55.601718 335.8438 57 335.7168 57 C 335.58979 57 334.10422 57.396134 332.41406 57.880859 C 330.32387 58.48032 328.35289 58.347084 326.25 57.462891 C 324.54959 56.747921 322.59493 55.114287 321.90625 53.832031 C 320.19899 50.653269 320.15312 31.456438 321.84375 27.375 C 323.28596 23.893204 326.48847 22.01813 329.8418 22.09375 z " />
    <path
       id="path27"
       style="display:inline;fill:#ffffff;fill-opacity:1"
       inkscape:label="r"
       d="M 280.2168 13.191406 C 278.64811 13.181246 276.91709 13.198955 275 13.236328 L 261.5 13.5 L 261.23242 39.484375 C 261.08538 53.775288 261.19376 66.062171 261.47266 66.789062 C 261.81928 67.692321 263.48694 68.013276 266.74023 67.804688 L 271.5 67.5 L 272 57 L 272.5 46.5 L 276 46.5 C 279.42857 46.5 279.61228 46.714326 285 57 L 290.5 67.5 L 295.38867 67.810547 C 298.0779 67.981316 300.69356 67.704871 301.20117 67.197266 C 301.76507 66.633366 300.06688 62.139168 296.83594 55.642578 L 291.54883 45.009766 L 295.26562 41.398438 C 301.62533 35.221289 302.54428 27.105889 297.70508 19.861328 C 294.23937 14.673016 291.19759 13.262527 280.2168 13.191406 z M 278.61328 22 C 283.94784 22 288.82324 24.445628 289.5918 27.507812 C 290.47301 31.018785 288.62615 34.810914 285.44727 36.019531 C 282.52963 37.128813 273.67892 37.346926 272.66602 36.333984 C 272.29935 35.967322 272 32.863931 272 29.439453 C 272 22.573655 272.5101 22 278.61328 22 z " />
    <path
       style="display:inline;fill:#ffffff;fill-opacity:1"
       d="m 213.5,13.5 h 19.5 19.5 v 4 4 l -6.16602,0.294922 c -3.45199,0.165463 -6.63262,0.860117 -7.22851,1.578125 -0.65938,0.794494 -1.16842,9.433048 -1.33594,22.705078 L 237.5,67.5 l -4.1582,0.302734 c -2.6125,0.190376 -4.47113,-0.18135 -5,-1 C 227.87882,66.08608 227.275,55.824964 227,44 L 226.5,22.5 220,22 213.5,21.5 v -4 z"
       id="path29"
       inkscape:label="t" />
    <path
       id="path25"
       style="display:inline;fill:#ffffff;fill-opacity:1"
       inkscape:label="a"
       d="M 191.79883 13.136719 C 191.45712 13.146732 191.08749 13.166088 190.68555 13.195312 L 186.5 13.5 L 177.30859 38.5 C 172.25316 52.249944 168.09059 64.537057 168.05859 65.804688 C 168.00469 67.937011 168.35542 68.086669 172.75 67.804688 C 177.34087 67.510108 177.57715 67.33954 179.78711 62.712891 L 182.07227 57.925781 L 191.17969 58.212891 C 200.84469 58.5175 200.51953 58.347283 203.20508 64.5 C 204.33339 67.085011 205.11983 67.54377 208.89258 67.814453 C 211.3007 67.987229 213.66687 67.733523 214.15039 67.25 C 214.90185 66.498541 198.74178 20.126107 195.83594 14.695312 C 195.27968 13.655716 194.46931 13.200839 192.74219 13.136719 C 192.45433 13.126029 192.14054 13.126705 191.79883 13.136719 z M 191.5 32.925781 C 192.77244 33.082624 197.19258 46.057467 196.54688 47.740234 C 195.98539 49.203444 186.43248 49.508929 185.55664 48.091797 C 184.77175 46.821818 190.27651 32.774972 191.5 32.925781 z " />
    <path
       style="display:inline;fill:#ffffff;fill-opacity:1"
       d="m 145.58984,12.183591 c 7.08739,0.436319 13.45452,4.461236 16.49219,11.246094 C 164.27014,28.316988 163.28193,30 158.22461,30 155.38704,30 153.96743,29.214299 151,26 c -2.96213,-3.208551 -4.38961,-4 -7.21094,-4 -5.52757,0 -8.4036,3.581566 -9.2539,11.521484 -0.94124,8.789118 0.24555,18.929993 2.56054,21.873047 3.65282,4.643805 11.72951,3.778348 14.48633,-1.552734 1.42571,-2.757 1.84944,-2.924144 6.7207,-2.642578 4.88114,0.282131 5.17977,0.45217 4.91602,2.791015 -0.45113,4.000616 -5.10257,9.774931 -9.64648,11.97461 -8.69002,4.206754 -20.63534,1.753592 -26.05469,-5.351563 -3.52892,-4.626638 -5.11009,-16.908995 -3.68946,-28.660156 1.20865,-9.997447 3.59937,-13.990807 10.40626,-17.382813 2.71478,-1.352839 5.52323,-2.120747 8.28124,-2.351562 1.03427,-0.08656 2.06174,-0.09749 3.07422,-0.03516 z"
       id="path23"
       inkscape:label="c" />
    <g
       id="g9"
       inkscape:label="bat">
      <path
         style="display:inline;fill:#ffffff;fill-opacity:1"
         d="m 47.251953,6.34375 c 0.64946,-0.4013887 2.847185,1.2437944 5.1875,3.882812 3.30416,3.725886 5.471335,5.063307 11.632813,7.175782 7.326122,2.511774 7.74033,2.544875 12.771484,1.050781 2.86003,-0.849341 5.660034,-1.25983 6.222656,-0.912109 1.197345,0.739999 0.302223,16.192069 -1.228515,21.205078 -0.545299,1.785788 -1.956434,3.923297 -3.136719,4.75 C 77.520887,44.322796 77.085447,45 77.734375,45 78.383303,45 80.17109,43.424978 81.707031,41.5 84.169757,38.413499 85.031607,38.004288 89,38.042969 c 5.624401,0.05482 10.952425,1.919434 15.58789,5.455078 3.27673,2.499278 7.3992,7.926673 7.4082,9.751953 0.002,0.4125 -2.05134,0.75 -4.5625,0.75 -5.62075,0 -7.95988,1.184559 -9.953121,5.039062 -1.525535,2.950059 -1.573271,2.964963 -4.632813,1.382813 -3.75012,-1.939262 -8.807458,-1.228657 -11.365234,1.597656 -2.305081,2.547086 -2.874244,2.49685 -5.890625,-0.519531 -4.173764,-4.173765 -6.270753,-3.364339 -7.576172,2.923828 -1.472854,7.094692 -2.888519,8.268484 -7.951172,6.597656 C 57.936003,70.319031 54.913861,70.000522 53.347656,70.3125 51.781453,70.624479 49.374997,71.141542 48,71.462891 46.625003,71.784237 44.824997,71.59366 44,71.039062 43.175003,70.484467 40.924994,70.01684 39,70 37.075006,69.98316 35.005551,69.638453 34.400391,69.234375 32.332281,67.85346 30.828996,63.816778 31.455078,61.322266 32.376372,57.651536 31.207469,54.799061 29.060547,55.480469 28.070806,55.794598 26.715917,55.361825 26.003906,54.503906 24.22099,52.355623 27.339069,49 31.119141,49 c 3.561461,0 5.14579,2.708088 5.849609,10 0.384758,3.986271 0.944085,5.5 2.03125,5.5 1.641566,0 2.606953,-6.944218 1.550781,-11.152344 -0.857686,-3.417293 -5.978083,-5.698404 -11.1875,-4.984375 -4.298332,0.589154 -4.298736,0.589591 -5.33789,-3.269531 C 22.762196,40.402604 21.036384,38.854115 16.197266,38.068359 12.73653,37.506423 12.492941,37.231156 12.394531,33.779297 12.261199,29.102464 9.6825928,25.133848 5.9257812,23.824219 1.8456505,22.401876 2.2592381,21.215667 7.6699219,18.822266 13.891461,16.070181 23.813874,16.645703 30.128906,20.125 c 3.947005,2.174619 4.423206,2.843052 4.916016,6.890625 0.616604,5.06434 1.828663,7.654098 4.863281,10.400391 2.889562,2.615017 2.621088,1.479309 -0.974609,-4.13086 -2.256675,-3.520962 -2.941815,-5.593734 -2.59375,-7.845703 C 36.824941,22.300864 45.229025,7.5939882 47.251953,6.34375 Z"
         id="path21"
         inkscape:label="figure" />
      <g
         id="g1"
         inkscape:label="eyes">
        <g
           id="g8"
           inkscape:label="eye_right">
          <path
             style="display:inline;fill:#d9d9d9;fill-opacity:1"
             d="m 68.824219,29 c -3.723024,0 -5.719833,3.738237 -4.00586,7.5 C 66.750541,40.740678 75,38.855946 75,34.173828 75,31.634723 71.855403,29 68.824219,29 Z"
             id="path35"
             inkscape:label="outer" />
          <path
             style="display:inline;fill:#000000;fill-opacity:1"
             d="m 68.03125,32.216797 c 0.43946,-0.08967 0.917926,-0.06586 1.384766,0.113281 0.898405,0.344753 1.302909,1.241651 0.960937,2.132813 -0.682493,1.778552 -2.950361,2.036959 -3.931641,0.449218 -0.705709,-1.141861 0.26756,-2.426303 1.585938,-2.695312 z"
             id="path36"
             inkscape:label="inner" />
        </g>
        <g
           id="g7"
           inkscape:label="eye_left">
          <path
             style="display:inline;fill:#d9d9d9;fill-opacity:1"
             d="m 50.355469,22.271484 c -0.58236,-0.06417 -1.202574,-0.02568 -1.84961,0.136719 -3.74771,0.940616 -5.249074,4.809037 -3.125,8.050781 1.915509,2.923435 5.135152,3.290246 7.791016,0.886719 3.479033,-3.14848 1.260102,-8.625031 -2.816406,-9.074219 z"
             id="path33"
             inkscape:label="outer" />
          <path
             style="display:inline;fill:#000000;fill-opacity:1"
             d="m 50.96875,26.216797 c 1.318378,0.269009 2.291647,1.553451 1.585938,2.695312 -0.98128,1.587741 -3.249148,1.329334 -3.931641,-0.449218 -0.341972,-0.891162 0.06253,-1.78806 0.960937,-2.132813 0.46684,-0.179143 0.945306,-0.202951 1.384766,-0.113281 z"
             id="path34"
             inkscape:label="inner" />
        </g>
      </g>
    </g>
  </g>
</svg>
