<?xml version="1.0" encoding="UTF-8" standalone="no"?>
<!-- Created with Inkscape (http://www.inkscape.org/) -->

<svg
   version="1.1"
   id="svg10"
   width="500"
   height="78"
   viewBox="0 0 500 78"
   sodipodi:docname="catrobat_logo.svg"
   inkscape:version="1.3 (0e150ed6c4, 2023-07-21)"
   xmlns:inkscape="http://www.inkscape.org/namespaces/inkscape"
   xmlns:sodipodi="http://sodipodi.sourceforge.net/DTD/sodipodi-0.dtd"
   xmlns="http://www.w3.org/2000/svg"
   xmlns:svg="http://www.w3.org/2000/svg">
  <defs
     id="defs14" />
  <sodipodi:namedview
     id="namedview12"
     pagecolor="#ffffff"
     bordercolor="#000000"
     borderopacity="0.25"
     inkscape:showpageshadow="2"
     inkscape:pageopacity="0.0"
     inkscape:pagecheckerboard="0"
     inkscape:deskcolor="#d1d1d1"
     showgrid="false"
     inkscape:zoom="2.76"
     inkscape:cx="282.24638"
     inkscape:cy="-17.572464"
     inkscape:window-width="2560"
     inkscape:window-height="1369"
     inkscape:window-x="1912"
     inkscape:window-y="-8"
     inkscape:window-maximized="1"
     inkscape:current-layer="g16" />
  <g
     inkscape:groupmode="layer"
     inkscape:label="Image"
     id="g16">
    <path
       style="display:inline;fill:#000000"
       d="m 68.03125,32.216797 c 0.43946,-0.08967 0.917926,-0.06586 1.384766,0.113281 0.898405,0.344753 1.302909,1.241651 0.960937,2.132813 -0.682493,1.778552 -2.950361,2.036959 -3.931641,0.449218 -0.705709,-1.141861 0.26756,-2.426303 1.585938,-2.695312 z"
       id="path36" />
    <path
       style="display:inline;fill:#000000"
       d="m 50.96875,26.216797 c 1.318378,0.269009 2.291647,1.553451 1.585938,2.695312 -0.98128,1.587741 -3.249148,1.329334 -3.931641,-0.449218 -0.341972,-0.891162 0.06253,-1.78806 0.960937,-2.132813 0.46684,-0.179143 0.945306,-0.202951 1.384766,-0.113281 z"
       id="path34" />
    <path
       style="display:inline;fill:#ffffff;fill-opacity:1"
       d="m 213.5,13.5 h 19.5 19.5 v 4 4 l -6.16602,0.294922 c -3.45199,0.165463 -6.63262,0.860117 -7.22851,1.578125 -0.65938,0.794494 -1.16842,9.433048 -1.33594,22.705078 L 237.5,67.5 l -4.1582,0.302734 c -2.6125,0.190376 -4.47113,-0.18135 -5,-1 C 227.87882,66.08608 227.275,55.824964 227,44 L 226.5,22.5 220,22 213.5,21.5 v -4 z"
       id="path29" />
    <path
       style="display:inline;fill:#ffffff;fill-opacity:1"
       d="m 375.5,13.236328 c 16.76049,-0.314633 19.66158,0.652495 23.30664,7.763672 2.68254,5.233371 2.37746,10.78966 -0.83594,15.208984 -2.47634,3.405704 -2.47739,3.399419 0.5293,6.972657 2.02522,2.406833 2.49909,4.048684 2.49609,8.644531 -0.005,7.248339 -2.54364,11.612572 -8.26757,14.210937 -3.44439,1.563569 -6.57156,1.923517 -16.85547,1.941407 -9.50714,0.01654 -12.9096,-0.31776 -13.76758,-1.351563 -0.80385,-0.968551 -1.06148,-8.997284 -0.87305,-27.25 L 361.5,13.5 Z"
       id="path28" />
    <path
       style="display:inline;fill:#ffffff;fill-opacity:1"
       d="m 275,13.236328 c 15.33676,-0.298985 18.74427,0.695494 22.70508,6.625 4.83921,7.244568 3.92025,15.359955 -2.43946,21.53711 l -3.71679,3.611328 5.28711,10.632812 c 3.23095,6.496596 4.92913,10.990788 4.36523,11.554688 -0.50761,0.507606 -3.12327,0.78405 -5.8125,0.613281 L 290.5,67.5 285,57 c -5.38773,-10.285684 -5.57143,-10.5 -9,-10.5 h -3.5 L 272,57 l -0.5,10.5 -4.75977,0.304688 c -3.2533,0.208589 -4.92095,-0.112367 -5.26757,-1.015626 -0.2789,-0.726892 -0.38728,-13.01376 -0.24024,-27.304687 L 261.5,13.5 Z"
       id="path27" />
    <path
       style="display:inline;fill:#ffffff;fill-opacity:1"
       d="m 430.23047,13.201169 c 3.01601,-0.200078 4.67989,0.132206 5.00781,1 8.4565,22.378756 18.71946,52.05968 18.25781,52.80664 C 453.15881,67.553554 450.89287,68 448.46094,68 c -4.28984,0 -4.4898,-0.141658 -6.69141,-4.75 L 439.5,58.5 h -9.36523 -9.36719 l -1.65625,4.5 c -1.61496,4.385516 -1.77815,4.507244 -6.39453,4.804688 -3.35886,0.216415 -4.89396,-0.101712 -5.27539,-1.095704 -0.29586,-0.770986 3.69435,-13.057854 8.86718,-27.304687 L 425.71484,13.5 Z"
       id="path26" />
    <path
       style="display:inline;fill:#ffffff;fill-opacity:1"
       d="m 192.74219,13.136719 c 1.72712,0.06412 2.53749,0.518995 3.09375,1.558593 2.90585,5.4308 19.06591,51.803228 18.31445,52.554688 -0.48352,0.483523 -2.84969,0.737229 -5.25781,0.564453 -3.77275,-0.270683 -4.55919,-0.729439 -5.6875,-3.314453 -2.68555,-6.152723 -2.36038,-5.982499 -12.02539,-6.287109 l -9.10742,-0.28711 -2.28516,4.78711 c -2.20996,4.626654 -2.44624,4.797217 -7.03711,5.091797 -4.39458,0.281982 -4.74531,0.132326 -4.69141,-2 0.032,-1.267632 4.19456,-13.55473 9.25,-27.304688 l 9.19141,-25 4.18555,-0.304688 c 0.80388,-0.05845 1.48093,-0.07997 2.05664,-0.05859 z"
       id="path25" />
    <path
       style="display:inline;fill:#ffffff;fill-opacity:1"
       d="m 453,13 h 19.43164 c 18.26663,0 19.46972,0.114004 20.04102,1.914062 0.3343,1.053223 0.31582,3.078232 -0.041,4.5 -0.60121,2.395381 -1.06333,2.587373 -6.29102,2.601563 -3.10284,0.0084 -6.19463,0.36716 -6.87109,0.796875 -0.89817,0.570549 -1.30278,6.702772 -1.5,22.734375 L 477.5,67.5 l -4.62305,0.298828 c -3.54094,0.229463 -4.77059,-0.08075 -5.25,-1.330078 C 467.28263,65.571466 467,55.471528 467,44.025391 467,20.478903 467.5925,22 458.41797,22 H 453 v -4.5 z"
       id="path24" />
    <path
       style="display:inline;fill:#fefefe;fill-opacity:1"
       d="m 145.58984,12.183591 c 7.08739,0.436319 13.45452,4.461236 16.49219,11.246094 C 164.27014,28.316988 163.28193,30 158.22461,30 155.38704,30 153.96743,29.214299 151,26 c -2.96213,-3.208551 -4.38961,-4 -7.21094,-4 -5.52757,0 -8.4036,3.581566 -9.2539,11.521484 -0.94124,8.789118 0.24555,18.929993 2.56054,21.873047 3.65282,4.643805 11.72951,3.778348 14.48633,-1.552734 1.42571,-2.757 1.84944,-2.924144 6.7207,-2.642578 4.88114,0.282131 5.17977,0.45217 4.91602,2.791015 -0.45113,4.000616 -5.10257,9.774931 -9.64648,11.97461 -8.69002,4.206754 -20.63534,1.753592 -26.05469,-5.351563 -3.52892,-4.626638 -5.11009,-16.908995 -3.68946,-28.660156 1.20865,-9.997447 3.59937,-13.990807 10.40626,-17.382813 2.71478,-1.352839 5.52323,-2.120747 8.28124,-2.351562 1.03427,-0.08656 2.06174,-0.09749 3.07422,-0.03516 z"
       id="path23" />
    <path
       style="display:inline;fill:#ffffff;fill-opacity:1"
       d="m 331.08984,12.113281 c 7.10017,0.308032 13.81006,4.254232 17.03125,11.345703 1.45057,3.193418 1.83862,6.558832 1.85157,16.041016 0.009,6.599979 -0.42667,13.590925 -0.9668,15.535156 -1.11419,4.0106 -7.11549,10.323648 -11.32031,11.90625 -6.45151,2.42819 -17.21634,0.600167 -22.01172,-3.736328 C 310.95629,58.938989 309.66247,54.184975 309.63477,41 c -0.0299,-14.214534 0.97176,-18.258461 5.63476,-22.771484 4.53999,-4.39395 10.29798,-6.354815 15.82031,-6.115235 z"
       id="path22" />
    <path
       style="display:inline;fill:#ffffff;fill-opacity:1"
       d="m 47.251953,6.34375 c 0.64946,-0.4013887 2.847185,1.2437944 5.1875,3.882812 3.30416,3.725886 5.471335,5.063307 11.632813,7.175782 7.326122,2.511774 7.74033,2.544875 12.771484,1.050781 2.86003,-0.849341 5.660034,-1.25983 6.222656,-0.912109 1.197345,0.739999 0.302223,16.192069 -1.228515,21.205078 -0.545299,1.785788 -1.956434,3.923297 -3.136719,4.75 C 77.520887,44.322796 77.085447,45 77.734375,45 78.383303,45 80.17109,43.424978 81.707031,41.5 84.169757,38.413499 85.031607,38.004288 89,38.042969 c 5.624401,0.05482 10.952425,1.919434 15.58789,5.455078 3.27673,2.499278 7.3992,7.926673 7.4082,9.751953 0.002,0.4125 -2.05134,0.75 -4.5625,0.75 -5.62075,0 -7.95988,1.184559 -9.953121,5.039062 -1.525535,2.950059 -1.573271,2.964963 -4.632813,1.382813 -3.75012,-1.939262 -8.807458,-1.228657 -11.365234,1.597656 -2.305081,2.547086 -2.874244,2.49685 -5.890625,-0.519531 -4.173764,-4.173765 -6.270753,-3.364339 -7.576172,2.923828 -1.472854,7.094692 -2.888519,8.268484 -7.951172,6.597656 C 57.936003,70.319031 54.913861,70.000522 53.347656,70.3125 51.781453,70.624479 49.374997,71.141542 48,71.462891 46.625003,71.784237 44.824997,71.59366 44,71.039062 43.175003,70.484467 40.924994,70.01684 39,70 37.075006,69.98316 35.005551,69.638453 34.400391,69.234375 32.332281,67.85346 30.828996,63.816778 31.455078,61.322266 32.376372,57.651536 31.207469,54.799061 29.060547,55.480469 28.070806,55.794598 26.715917,55.361825 26.003906,54.503906 24.22099,52.355623 27.339069,49 31.119141,49 c 3.561461,0 5.14579,2.708088 5.849609,10 0.384758,3.986271 0.944085,5.5 2.03125,5.5 1.641566,0 2.606953,-6.944218 1.550781,-11.152344 -0.857686,-3.417293 -5.978083,-5.698404 -11.1875,-4.984375 -4.298332,0.589154 -4.298736,0.589591 -5.33789,-3.269531 C 22.762196,40.402604 21.036384,38.854115 16.197266,38.068359 12.73653,37.506423 12.492941,37.231156 12.394531,33.779297 12.261199,29.102464 9.6825928,25.133848 5.9257812,23.824219 1.8456505,22.401876 2.2592381,21.215667 7.6699219,18.822266 13.891461,16.070181 23.813874,16.645703 30.128906,20.125 c 3.947005,2.174619 4.423206,2.843052 4.916016,6.890625 0.616604,5.06434 1.828663,7.654098 4.863281,10.400391 2.889562,2.615017 2.621088,1.479309 -0.974609,-4.13086 -2.256675,-3.520962 -2.941815,-5.593734 -2.59375,-7.845703 C 36.824941,22.300864 45.229025,7.5939882 47.251953,6.34375 Z"
       id="path21" />
    <path
       style="display:inline;fill:#000000;fill-opacity:0"
       d="m 68.824219,29 c -3.723024,0 -5.719833,3.738237 -4.00586,7.5 C 66.750541,40.740678 75,38.855946 75,34.173828 75,31.634723 71.855403,29 68.824219,29 Z"
       id="path35" />
    <path
       style="display:inline;fill:#000000;fill-opacity:0"
       d="m 191.5,32.925781 c -1.22349,-0.150809 -6.72825,13.896036 -5.94336,15.166016 0.87584,1.417134 10.42875,1.111648 10.99024,-0.351563 0.64571,-1.682769 -3.77444,-14.65761 -5.04688,-14.814453 z"
       id="path38" />
    <path
       style="display:inline;fill:#000000;fill-opacity:0"
       d="M 278.61328,22 C 272.51009,22 272,22.573648 272,29.439453 c 0,3.424481 0.29935,6.527868 0.66602,6.894531 1.01291,1.012943 9.86361,0.79483 12.78125,-0.314453 3.17889,-1.208618 5.02574,-5.000743 4.14453,-8.511719 C 288.82324,24.445624 283.94784,22 278.61328,22 Z"
       id="path30" />
    <path
       style="display:inline;fill:#000000;fill-opacity:0"
       d="m 329.8418,22.09375 c -3.35333,-0.07562 -6.55584,1.799451 -7.99805,5.28125 -1.69063,4.081442 -1.64476,23.278266 0.0625,26.457031 0.68868,1.282257 2.64334,2.91589 4.34375,3.63086 2.10289,0.884194 4.07387,1.017429 6.16406,0.417968 C 334.10422,57.396133 335.58979,57 335.7168,57 c 0.127,0 0.95402,-1.39828 1.83789,-3.107422 1.27868,-2.471929 1.54087,-5.559156 1.27734,-15.089844 -0.32375,-11.708572 -0.39678,-12.03634 -3.13867,-14.392578 -1.77376,-1.524269 -3.83959,-2.271036 -5.85156,-2.316406 z"
       id="path32" />
    <path
       style="display:inline;fill:#000000;fill-opacity:0"
       d="m 376.54688,22.03711 c -1.3206,0.127866 -2.41345,0.436861 -3.04493,0.960938 -1.52352,1.264402 -2.16819,10.003686 -0.83593,11.335937 C 373.03268,34.700651 375.97956,35 379.21289,35 c 4.90834,0 6.28267,-0.405725 8.33203,-2.455078 2.93316,-2.933149 3.06724,-4.567002 0.6211,-7.587891 -1.65712,-2.046445 -7.65739,-3.303515 -11.61914,-2.919921 z"
       id="path31" />
    <path
       style="display:inline;fill:#000000;fill-opacity:0.00769231"
       d="m 382.79102,45.134766 c -0.95692,-0.01684 -2.08267,0.0081 -3.42383,0.06641 L 372.5,45.5 l -0.31055,4.873047 c -0.1704,2.680108 -0.0719,5.49262 0.21875,6.25 0.76764,2.000418 12.45167,1.863805 15.36914,-0.179688 2.83195,-1.983566 3.01925,-7.411093 0.33985,-9.835937 -1.10268,-0.997907 -2.45544,-1.422126 -5.32617,-1.472656 z"
       id="path39" />
    <path
       style="display:inline;fill:#000000;fill-opacity:0"
       d="m 430.53125,32.669922 c -1.19797,0.212197 -5.41067,11.034946 -5.48047,14.080078 -0.0474,2.066854 0.39693,2.25 5.44922,2.25 5.05462,0 5.49601,-0.182195 5.44141,-2.25 -0.0879,-3.32575 -4.29622,-14.277392 -5.41016,-14.080078 z"
       id="path37" />
    <path
       style="display:inline;fill:#000000;fill-opacity:0"
       d="m 50.355469,22.271484 c -0.58236,-0.06417 -1.202574,-0.02568 -1.84961,0.136719 -3.74771,0.940616 -5.249074,4.809037 -3.125,8.050781 1.915509,2.923435 5.135152,3.290246 7.791016,0.886719 3.479033,-3.14848 1.260102,-8.625031 -2.816406,-9.074219 z"
       id="path33" />
  </g>
</svg>
